<svg xmlns="http://www.w3.org/2000/svg" version="1.1" xmlns:xlink="http://www.w3.org/1999/xlink" viewBox="0 0 200 200"><rect width="200" height="200" fill="url('#gradient')"></rect><defs><linearGradient id="gradient" gradientTransform="rotate(45 0.5 0.5)"><stop offset="0%" stop-color="#236170"></stop><stop offset="100%" stop-color="#123140"></stop></linearGradient></defs><g><g fill="#e2eef3" transform="matrix(4.981621621621621,0,0,4.981621621621621,4.651138168412288,135.39879479897988)" stroke="#00121c" stroke-width="0.4"><path d="M9.89-8.57L9.89-6.03L4.50-6.03L4.50-2.64L10.87-2.64L10.87 0L1.07 0L1.07-14.22L10.89-14.22L10.89-11.57L4.50-11.57L4.50-8.57L9.89-8.57ZM14.20-7.47L14.23-7.49Q13.65-8.31 13.33-9.05Q13.00-9.79 13.00-10.59L13.00-10.59Q13.00-12.30 14.11-13.36Q15.22-14.42 17.02-14.42L17.02-14.42Q18.63-14.42 19.69-13.44Q20.74-12.46 20.74-11.01L20.74-11.01Q20.74-9.19 18.74-7.78L18.74-7.78L18.00-7.27L20.19-4.76Q20.72-5.83 20.72-7.11L20.72-7.11L23.49-7.11Q23.49-4.23 22.16-2.49L22.16-2.49L24.33 0L20.65 0L19.99-0.75Q19.17-0.26 18.32-0.03Q17.46 0.21 16.39 0.21L16.39 0.21Q14.28 0.21 13.01-0.90Q11.74-2.01 11.74-3.82L11.74-3.82Q11.74-4.80 12.24-5.61Q12.74-6.41 14.20-7.47L14.20-7.47ZM16.60-2.33L16.60-2.33Q17.46-2.33 18.24-2.73L18.24-2.73L15.68-5.64L15.60-5.59Q15.04-4.90 15.04-4.04L15.04-4.04Q15.04-3.33 15.49-2.83Q15.94-2.33 16.60-2.33ZM15.84-10.63L15.84-10.63Q15.84-9.94 16.58-8.96L16.58-8.96L17.24-9.38Q17.69-9.67 17.89-9.98Q18.10-10.29 18.10-10.77L18.10-10.77Q18.10-11.22 17.78-11.55Q17.47-11.88 17.01-11.88L17.01-11.88Q16.46-11.88 16.15-11.54Q15.84-11.19 15.84-10.63ZM33.54 0L31.03-5.02L29.17-5.02L29.17 0L25.74 0L25.74-14.22L31.34-14.22Q33.87-14.22 35.29-13.10Q36.72-11.97 36.72-9.92L36.72-9.92Q36.72-8.44 36.12-7.46Q35.52-6.48 34.24-5.88L34.24-5.88L37.21-0.15L37.21 0L33.54 0ZM29.17-11.57L29.17-7.67L31.34-7.67Q32.31-7.67 32.81-8.18Q33.30-8.69 33.30-9.61Q33.30-10.53 32.80-11.05Q32.30-11.57 31.34-11.57L31.34-11.57L29.17-11.57Z"></path></g></g></svg>